# xmcd
# 
# Track frame offsets:
#     150
#     13947
#     34247
#     49827
#     73510
#     87452
#     102447
#     121457
#     141755
#     163725
#     190080
#     208430
#     221932
#     240562
#     254585
#     285025
#     309605
# 
# Disc length: 4333
# 
# Revision: 1
# Processed by: cddbd v1.5.2PL0 Copyright (c) Steve Scherf et al.
# Submitted via: fre:ac v1.0.17
# 
DISCID=0810eb11
DTITLE=TOOTS THIELEMANS - THE BEST OF TOOTS THIELEMANS
DYEAR=2003
DGENRE=Jazz
TTITLE0=フェリシアとビアンカ
TTITLE1=移り気な心
TTITLE2=カーニヴァルの朝 （黒いオルフェ）
TTITLE3=オセアーノ
TTITLE4=トラヴェシア
TTITLE5=ワン・ノート・サンバ
TTITLE6=ワルツ・フォー・デビー
TTITLE7=テイク・ファイヴ
TTITLE8=ブルー・イン・グリーン
TTITLE9=バラ色の人生
TTITLE10=愛の賛歌
TTITLE11=オールド・フレンド
TTITLE12=風のささやき
TTITLE13=リトル・ウィング
TTITLE14=シェルブールの雨傘／鈴木重子
TTITLE15=アイ・リメンバー・ビル
TTITLE16=タイム・アフター・タイム
EXTD=
EXTT0=
EXTT1=
EXTT2=
EXTT3=
EXTT4=
EXTT5=
EXTT6=
EXTT7=
EXTT8=
EXTT9=
EXTT10=
EXTT11=
EXTT12=
EXTT13=
EXTT14=
EXTT15=
EXTT16=
PLAYORDER=
